<mxfile host="Electron" modified="2023-11-07T06:52:23.709Z" agent="Mozilla/5.0 (Macintosh; Intel Mac OS X 10_15_7) AppleWebKit/537.36 (KHTML, like Gecko) draw.io/22.0.3 Chrome/114.0.5735.289 Electron/25.8.4 Safari/537.36" etag="BH5vSJtc_pdIpgIBaUf2" version="22.0.3" type="device">
  <diagram name="Page-1" id="-4GSD9OqZNhLOhjjK0Dt">
    <mxGraphModel dx="2233" dy="1911" grid="1" gridSize="10" guides="1" tooltips="1" connect="1" arrows="1" fold="1" page="1" pageScale="1" pageWidth="827" pageHeight="1169" math="0" shadow="0">
      <root>
        <mxCell id="0" />
        <mxCell id="1" parent="0" />
        <mxCell id="ph1OJptVyuive3qRqKqB-138" value="" style="rounded=1;arcSize=6;dashed=1;strokeColor=#0066CC;fillColor=none;gradientColor=none;dashPattern=8 4;strokeWidth=1;" parent="1" vertex="1">
          <mxGeometry x="430" y="520" width="380" height="495" as="geometry" />
        </mxCell>
        <mxCell id="ph1OJptVyuive3qRqKqB-157" value="" style="rounded=1;whiteSpace=wrap;html=1;fillColor=none;arcSize=2;" parent="1" vertex="1">
          <mxGeometry x="-240" y="-20" width="1080" height="1060" as="geometry" />
        </mxCell>
        <mxCell id="ph1OJptVyuive3qRqKqB-135" value="" style="rounded=1;arcSize=6;dashed=1;strokeColor=#4D9900;fillColor=none;gradientColor=none;dashPattern=8 4;strokeWidth=1;" parent="1" vertex="1">
          <mxGeometry x="-210" y="520" width="620" height="495" as="geometry" />
        </mxCell>
        <mxCell id="ph1OJptVyuive3qRqKqB-40" value="" style="rounded=1;arcSize=10;dashed=1;strokeColor=#ff0000;fillColor=none;gradientColor=none;dashPattern=8 4;strokeWidth=1;" parent="1" vertex="1">
          <mxGeometry x="-210" y="230" width="940" height="240" as="geometry" />
        </mxCell>
        <mxCell id="ph1OJptVyuive3qRqKqB-15" style="edgeStyle=orthogonalEdgeStyle;rounded=0;orthogonalLoop=1;jettySize=auto;html=1;entryX=0.5;entryY=0;entryDx=0;entryDy=0;" parent="1" source="ph1OJptVyuive3qRqKqB-1" target="ph1OJptVyuive3qRqKqB-4" edge="1">
          <mxGeometry relative="1" as="geometry" />
        </mxCell>
        <mxCell id="ph1OJptVyuive3qRqKqB-1" value="Login" style="rounded=1;whiteSpace=wrap;html=1;" parent="1" vertex="1">
          <mxGeometry x="80" y="160" width="120" height="40" as="geometry" />
        </mxCell>
        <mxCell id="ph1OJptVyuive3qRqKqB-2" value="Home" style="rounded=1;whiteSpace=wrap;html=1;" parent="1" vertex="1">
          <mxGeometry x="200" y="80" width="120" height="40" as="geometry" />
        </mxCell>
        <mxCell id="ph1OJptVyuive3qRqKqB-22" style="edgeStyle=orthogonalEdgeStyle;rounded=0;orthogonalLoop=1;jettySize=auto;html=1;entryX=0.5;entryY=0;entryDx=0;entryDy=0;" parent="1" source="ph1OJptVyuive3qRqKqB-4" target="ph1OJptVyuive3qRqKqB-8" edge="1">
          <mxGeometry relative="1" as="geometry">
            <Array as="points">
              <mxPoint x="-140" y="260" />
            </Array>
          </mxGeometry>
        </mxCell>
        <mxCell id="ph1OJptVyuive3qRqKqB-25" style="edgeStyle=orthogonalEdgeStyle;rounded=0;orthogonalLoop=1;jettySize=auto;html=1;entryX=0;entryY=0.5;entryDx=0;entryDy=0;" parent="1" source="ph1OJptVyuive3qRqKqB-4" target="ph1OJptVyuive3qRqKqB-9" edge="1">
          <mxGeometry relative="1" as="geometry" />
        </mxCell>
        <mxCell id="ph1OJptVyuive3qRqKqB-4" value="Sign in (PO/CO)" style="rounded=1;whiteSpace=wrap;html=1;" parent="1" vertex="1">
          <mxGeometry x="-80" y="240" width="120" height="40" as="geometry" />
        </mxCell>
        <mxCell id="ph1OJptVyuive3qRqKqB-16" style="edgeStyle=orthogonalEdgeStyle;rounded=0;orthogonalLoop=1;jettySize=auto;html=1;entryX=0.5;entryY=0;entryDx=0;entryDy=0;" parent="1" source="ph1OJptVyuive3qRqKqB-5" target="ph1OJptVyuive3qRqKqB-7" edge="1">
          <mxGeometry relative="1" as="geometry" />
        </mxCell>
        <mxCell id="ph1OJptVyuive3qRqKqB-5" value="Get started" style="rounded=1;whiteSpace=wrap;html=1;" parent="1" vertex="1">
          <mxGeometry x="320" y="160" width="120" height="40" as="geometry" />
        </mxCell>
        <mxCell id="ph1OJptVyuive3qRqKqB-17" style="edgeStyle=orthogonalEdgeStyle;rounded=0;orthogonalLoop=1;jettySize=auto;html=1;entryX=1;entryY=0.5;entryDx=0;entryDy=0;startArrow=classic;startFill=1;" parent="1" source="ph1OJptVyuive3qRqKqB-7" target="ph1OJptVyuive3qRqKqB-4" edge="1">
          <mxGeometry relative="1" as="geometry" />
        </mxCell>
        <mxCell id="ph1OJptVyuive3qRqKqB-23" style="edgeStyle=orthogonalEdgeStyle;rounded=0;orthogonalLoop=1;jettySize=auto;html=1;entryX=0.5;entryY=0;entryDx=0;entryDy=0;" parent="1" source="ph1OJptVyuive3qRqKqB-7" target="ph1OJptVyuive3qRqKqB-11" edge="1">
          <mxGeometry relative="1" as="geometry">
            <Array as="points">
              <mxPoint x="660" y="260" />
            </Array>
          </mxGeometry>
        </mxCell>
        <mxCell id="ph1OJptVyuive3qRqKqB-24" style="edgeStyle=orthogonalEdgeStyle;rounded=0;orthogonalLoop=1;jettySize=auto;html=1;entryX=1;entryY=0.5;entryDx=0;entryDy=0;" parent="1" source="ph1OJptVyuive3qRqKqB-7" target="ph1OJptVyuive3qRqKqB-10" edge="1">
          <mxGeometry relative="1" as="geometry" />
        </mxCell>
        <mxCell id="ph1OJptVyuive3qRqKqB-7" value="Sign up (PO/CO)" style="rounded=1;whiteSpace=wrap;html=1;" parent="1" vertex="1">
          <mxGeometry x="480" y="240" width="120" height="40" as="geometry" />
        </mxCell>
        <mxCell id="ph1OJptVyuive3qRqKqB-78" style="edgeStyle=orthogonalEdgeStyle;rounded=0;orthogonalLoop=1;jettySize=auto;html=1;startArrow=classic;startFill=1;" parent="1" source="ph1OJptVyuive3qRqKqB-8" edge="1">
          <mxGeometry relative="1" as="geometry">
            <mxPoint x="-140" y="380" as="targetPoint" />
          </mxGeometry>
        </mxCell>
        <mxCell id="ph1OJptVyuive3qRqKqB-8" value="Email &amp;amp; Password" style="rounded=1;whiteSpace=wrap;html=1;" parent="1" vertex="1">
          <mxGeometry x="-200" y="320" width="120" height="40" as="geometry" />
        </mxCell>
        <mxCell id="ph1OJptVyuive3qRqKqB-82" style="edgeStyle=orthogonalEdgeStyle;rounded=0;orthogonalLoop=1;jettySize=auto;html=1;startArrow=classic;startFill=1;" parent="1" source="ph1OJptVyuive3qRqKqB-9" edge="1">
          <mxGeometry relative="1" as="geometry">
            <mxPoint x="100" y="380" as="targetPoint" />
          </mxGeometry>
        </mxCell>
        <mxCell id="ph1OJptVyuive3qRqKqB-9" value="Google&amp;nbsp;" style="rounded=1;whiteSpace=wrap;html=1;" parent="1" vertex="1">
          <mxGeometry x="40" y="320" width="120" height="40" as="geometry" />
        </mxCell>
        <mxCell id="ph1OJptVyuive3qRqKqB-81" style="edgeStyle=orthogonalEdgeStyle;rounded=0;orthogonalLoop=1;jettySize=auto;html=1;startArrow=classic;startFill=1;" parent="1" source="ph1OJptVyuive3qRqKqB-10" edge="1">
          <mxGeometry relative="1" as="geometry">
            <mxPoint x="420" y="380" as="targetPoint" />
          </mxGeometry>
        </mxCell>
        <mxCell id="ph1OJptVyuive3qRqKqB-10" value="Email &amp;amp; Password" style="rounded=1;whiteSpace=wrap;html=1;" parent="1" vertex="1">
          <mxGeometry x="360" y="320" width="120" height="40" as="geometry" />
        </mxCell>
        <mxCell id="ph1OJptVyuive3qRqKqB-80" style="edgeStyle=orthogonalEdgeStyle;rounded=0;orthogonalLoop=1;jettySize=auto;html=1;startArrow=classic;startFill=1;" parent="1" source="ph1OJptVyuive3qRqKqB-11" edge="1">
          <mxGeometry relative="1" as="geometry">
            <mxPoint x="660" y="380" as="targetPoint" />
          </mxGeometry>
        </mxCell>
        <mxCell id="ph1OJptVyuive3qRqKqB-11" value="Google&amp;nbsp;" style="rounded=1;whiteSpace=wrap;html=1;" parent="1" vertex="1">
          <mxGeometry x="600" y="320" width="120" height="40" as="geometry" />
        </mxCell>
        <mxCell id="ph1OJptVyuive3qRqKqB-18" value="" style="endArrow=none;html=1;rounded=0;" parent="1" edge="1">
          <mxGeometry width="50" height="50" relative="1" as="geometry">
            <mxPoint x="140" y="140" as="sourcePoint" />
            <mxPoint x="380" y="140" as="targetPoint" />
          </mxGeometry>
        </mxCell>
        <mxCell id="ph1OJptVyuive3qRqKqB-19" value="" style="endArrow=none;html=1;rounded=0;exitX=0.5;exitY=0;exitDx=0;exitDy=0;startArrow=classic;startFill=1;" parent="1" source="ph1OJptVyuive3qRqKqB-1" edge="1">
          <mxGeometry width="50" height="50" relative="1" as="geometry">
            <mxPoint x="230" y="200" as="sourcePoint" />
            <mxPoint x="140" y="140" as="targetPoint" />
          </mxGeometry>
        </mxCell>
        <mxCell id="ph1OJptVyuive3qRqKqB-20" value="" style="endArrow=none;html=1;rounded=0;exitX=0.5;exitY=0;exitDx=0;exitDy=0;startArrow=classic;startFill=1;" parent="1" edge="1">
          <mxGeometry width="50" height="50" relative="1" as="geometry">
            <mxPoint x="379.78" y="160" as="sourcePoint" />
            <mxPoint x="379.78" y="140" as="targetPoint" />
          </mxGeometry>
        </mxCell>
        <mxCell id="ph1OJptVyuive3qRqKqB-21" value="" style="endArrow=none;html=1;rounded=0;exitX=0.5;exitY=0;exitDx=0;exitDy=0;startArrow=classic;startFill=1;" parent="1" edge="1">
          <mxGeometry width="50" height="50" relative="1" as="geometry">
            <mxPoint x="259.78" y="140" as="sourcePoint" />
            <mxPoint x="259.78" y="120" as="targetPoint" />
          </mxGeometry>
        </mxCell>
        <mxCell id="ph1OJptVyuive3qRqKqB-39" value="" style="rounded=1;arcSize=10;dashed=1;strokeColor=#B266FF;fillColor=none;gradientColor=none;dashPattern=8 4;strokeWidth=1;" parent="1" vertex="1">
          <mxGeometry x="70" y="60" width="380" height="150" as="geometry" />
        </mxCell>
        <mxCell id="ph1OJptVyuive3qRqKqB-41" value="Dashboard" style="rounded=1;whiteSpace=wrap;html=1;" parent="1" vertex="1">
          <mxGeometry x="-200" y="555" width="120" height="40" as="geometry" />
        </mxCell>
        <mxCell id="ph1OJptVyuive3qRqKqB-76" style="edgeStyle=orthogonalEdgeStyle;rounded=0;orthogonalLoop=1;jettySize=auto;html=1;" parent="1" source="ph1OJptVyuive3qRqKqB-42" edge="1">
          <mxGeometry relative="1" as="geometry">
            <mxPoint x="20" y="635.0000000000001" as="targetPoint" />
          </mxGeometry>
        </mxCell>
        <mxCell id="ph1OJptVyuive3qRqKqB-42" value="Plots" style="rounded=1;whiteSpace=wrap;html=1;" parent="1" vertex="1">
          <mxGeometry x="-40" y="555" width="120" height="40" as="geometry" />
        </mxCell>
        <mxCell id="ph1OJptVyuive3qRqKqB-43" value="Bookings" style="rounded=1;whiteSpace=wrap;html=1;" parent="1" vertex="1">
          <mxGeometry x="120" y="555" width="120" height="40" as="geometry" />
        </mxCell>
        <mxCell id="ph1OJptVyuive3qRqKqB-44" value="Profile" style="rounded=1;whiteSpace=wrap;html=1;" parent="1" vertex="1">
          <mxGeometry x="280" y="555" width="120" height="40" as="geometry" />
        </mxCell>
        <mxCell id="ph1OJptVyuive3qRqKqB-90" style="edgeStyle=orthogonalEdgeStyle;rounded=0;orthogonalLoop=1;jettySize=auto;html=1;" parent="1" source="ph1OJptVyuive3qRqKqB-46" edge="1">
          <mxGeometry relative="1" as="geometry">
            <mxPoint x="580" y="644.9999999999999" as="targetPoint" />
          </mxGeometry>
        </mxCell>
        <mxCell id="ph1OJptVyuive3qRqKqB-46" value="Plots" style="rounded=1;whiteSpace=wrap;html=1;" parent="1" vertex="1">
          <mxGeometry x="520" y="555" width="120" height="40" as="geometry" />
        </mxCell>
        <mxCell id="ph1OJptVyuive3qRqKqB-47" value="Profile" style="rounded=1;whiteSpace=wrap;html=1;" parent="1" vertex="1">
          <mxGeometry x="680" y="555" width="120" height="40" as="geometry" />
        </mxCell>
        <mxCell id="ph1OJptVyuive3qRqKqB-70" value="New data info" style="edgeStyle=orthogonalEdgeStyle;rounded=0;orthogonalLoop=1;jettySize=auto;html=1;entryX=0;entryY=0.5;entryDx=0;entryDy=0;" parent="1" source="ph1OJptVyuive3qRqKqB-62" target="ph1OJptVyuive3qRqKqB-66" edge="1">
          <mxGeometry relative="1" as="geometry">
            <Array as="points">
              <mxPoint x="-80" y="815" />
            </Array>
          </mxGeometry>
        </mxCell>
        <mxCell id="ph1OJptVyuive3qRqKqB-73" style="edgeStyle=orthogonalEdgeStyle;rounded=0;orthogonalLoop=1;jettySize=auto;html=1;endArrow=none;endFill=0;startArrow=classic;startFill=1;" parent="1" source="ph1OJptVyuive3qRqKqB-62" edge="1">
          <mxGeometry relative="1" as="geometry">
            <mxPoint x="-80" y="635" as="targetPoint" />
          </mxGeometry>
        </mxCell>
        <mxCell id="ph1OJptVyuive3qRqKqB-131" style="edgeStyle=orthogonalEdgeStyle;rounded=0;orthogonalLoop=1;jettySize=auto;html=1;" parent="1" source="ph1OJptVyuive3qRqKqB-62" target="ph1OJptVyuive3qRqKqB-126" edge="1">
          <mxGeometry relative="1" as="geometry" />
        </mxCell>
        <mxCell id="ph1OJptVyuive3qRqKqB-133" value="Upload phioto" style="edgeLabel;html=1;align=center;verticalAlign=middle;resizable=0;points=[];" parent="ph1OJptVyuive3qRqKqB-131" vertex="1" connectable="0">
          <mxGeometry x="0.4816" y="-4" relative="1" as="geometry">
            <mxPoint y="-1" as="offset" />
          </mxGeometry>
        </mxCell>
        <mxCell id="ph1OJptVyuive3qRqKqB-62" value="Add" style="rounded=1;whiteSpace=wrap;html=1;" parent="1" vertex="1">
          <mxGeometry x="-120" y="675" width="80" height="40" as="geometry" />
        </mxCell>
        <mxCell id="ph1OJptVyuive3qRqKqB-68" value="Removes plot" style="edgeStyle=orthogonalEdgeStyle;rounded=0;orthogonalLoop=1;jettySize=auto;html=1;entryX=0.5;entryY=0;entryDx=0;entryDy=0;" parent="1" source="ph1OJptVyuive3qRqKqB-63" target="ph1OJptVyuive3qRqKqB-66" edge="1">
          <mxGeometry relative="1" as="geometry" />
        </mxCell>
        <mxCell id="ph1OJptVyuive3qRqKqB-75" style="edgeStyle=orthogonalEdgeStyle;rounded=0;orthogonalLoop=1;jettySize=auto;html=1;endArrow=none;endFill=0;startArrow=classic;startFill=1;" parent="1" source="ph1OJptVyuive3qRqKqB-63" edge="1">
          <mxGeometry relative="1" as="geometry">
            <mxPoint x="20" y="635" as="targetPoint" />
          </mxGeometry>
        </mxCell>
        <mxCell id="ph1OJptVyuive3qRqKqB-63" value="Delete" style="rounded=1;whiteSpace=wrap;html=1;" parent="1" vertex="1">
          <mxGeometry x="-20" y="675" width="80" height="40" as="geometry" />
        </mxCell>
        <mxCell id="ph1OJptVyuive3qRqKqB-71" value="Update&#39;s plot info" style="edgeStyle=orthogonalEdgeStyle;rounded=0;orthogonalLoop=1;jettySize=auto;html=1;entryX=1;entryY=0.5;entryDx=0;entryDy=0;" parent="1" source="ph1OJptVyuive3qRqKqB-64" target="ph1OJptVyuive3qRqKqB-66" edge="1">
          <mxGeometry x="-0.0053" relative="1" as="geometry">
            <Array as="points">
              <mxPoint x="120" y="815" />
            </Array>
            <mxPoint as="offset" />
          </mxGeometry>
        </mxCell>
        <mxCell id="ph1OJptVyuive3qRqKqB-74" style="edgeStyle=orthogonalEdgeStyle;rounded=0;orthogonalLoop=1;jettySize=auto;html=1;endArrow=none;endFill=0;startArrow=classic;startFill=1;" parent="1" source="ph1OJptVyuive3qRqKqB-64" edge="1">
          <mxGeometry relative="1" as="geometry">
            <mxPoint x="120" y="635" as="targetPoint" />
          </mxGeometry>
        </mxCell>
        <mxCell id="ph1OJptVyuive3qRqKqB-129" style="edgeStyle=orthogonalEdgeStyle;rounded=0;orthogonalLoop=1;jettySize=auto;html=1;entryX=1;entryY=0.75;entryDx=0;entryDy=0;" parent="1" source="ph1OJptVyuive3qRqKqB-64" target="ph1OJptVyuive3qRqKqB-126" edge="1">
          <mxGeometry relative="1" as="geometry">
            <mxPoint x="120" y="965" as="targetPoint" />
            <Array as="points">
              <mxPoint x="120" y="935" />
            </Array>
          </mxGeometry>
        </mxCell>
        <mxCell id="ph1OJptVyuive3qRqKqB-134" value="Upload photo" style="edgeLabel;html=1;align=center;verticalAlign=middle;resizable=0;points=[];" parent="ph1OJptVyuive3qRqKqB-129" vertex="1" connectable="0">
          <mxGeometry x="-0.2855" relative="1" as="geometry">
            <mxPoint y="-1" as="offset" />
          </mxGeometry>
        </mxCell>
        <mxCell id="ph1OJptVyuive3qRqKqB-64" value="Edit" style="rounded=1;whiteSpace=wrap;html=1;" parent="1" vertex="1">
          <mxGeometry x="80" y="675" width="80" height="40" as="geometry" />
        </mxCell>
        <mxCell id="ph1OJptVyuive3qRqKqB-66" value="MongoDB" style="shape=datastore;whiteSpace=wrap;html=1;" parent="1" vertex="1">
          <mxGeometry x="-10" y="785" width="60" height="60" as="geometry" />
        </mxCell>
        <mxCell id="ph1OJptVyuive3qRqKqB-79" style="edgeStyle=orthogonalEdgeStyle;rounded=0;orthogonalLoop=1;jettySize=auto;html=1;startArrow=classic;startFill=1;" parent="1" source="ph1OJptVyuive3qRqKqB-67" edge="1">
          <mxGeometry relative="1" as="geometry">
            <mxPoint x="260" y="380" as="targetPoint" />
          </mxGeometry>
        </mxCell>
        <mxCell id="ph1OJptVyuive3qRqKqB-67" value="" style="shape=datastore;whiteSpace=wrap;html=1;" parent="1" vertex="1">
          <mxGeometry x="230" y="400" width="60" height="60" as="geometry" />
        </mxCell>
        <mxCell id="ph1OJptVyuive3qRqKqB-72" value="" style="endArrow=none;html=1;rounded=0;" parent="1" edge="1">
          <mxGeometry width="50" height="50" relative="1" as="geometry">
            <mxPoint x="-80" y="635" as="sourcePoint" />
            <mxPoint x="120" y="635" as="targetPoint" />
          </mxGeometry>
        </mxCell>
        <mxCell id="ph1OJptVyuive3qRqKqB-77" value="" style="endArrow=none;html=1;rounded=0;" parent="1" edge="1">
          <mxGeometry width="50" height="50" relative="1" as="geometry">
            <mxPoint x="-140" y="380" as="sourcePoint" />
            <mxPoint x="660" y="380" as="targetPoint" />
          </mxGeometry>
        </mxCell>
        <mxCell id="ph1OJptVyuive3qRqKqB-92" style="edgeStyle=orthogonalEdgeStyle;rounded=0;orthogonalLoop=1;jettySize=auto;html=1;endArrow=none;endFill=0;startArrow=classic;startFill=1;" parent="1" source="ph1OJptVyuive3qRqKqB-83" edge="1">
          <mxGeometry relative="1" as="geometry">
            <mxPoint x="580" y="644.9999999999999" as="targetPoint" />
          </mxGeometry>
        </mxCell>
        <mxCell id="ph1OJptVyuive3qRqKqB-136" style="edgeStyle=orthogonalEdgeStyle;rounded=0;orthogonalLoop=1;jettySize=auto;html=1;exitX=0.25;exitY=1;exitDx=0;exitDy=0;entryX=1;entryY=0.7;entryDx=0;entryDy=0;" parent="1" source="ph1OJptVyuive3qRqKqB-83" target="ph1OJptVyuive3qRqKqB-66" edge="1">
          <mxGeometry relative="1" as="geometry" />
        </mxCell>
        <mxCell id="ph1OJptVyuive3qRqKqB-137" value="Fetching data" style="edgeLabel;html=1;align=center;verticalAlign=middle;resizable=0;points=[];" parent="ph1OJptVyuive3qRqKqB-136" vertex="1" connectable="0">
          <mxGeometry x="0.1301" relative="1" as="geometry">
            <mxPoint as="offset" />
          </mxGeometry>
        </mxCell>
        <mxCell id="ph1OJptVyuive3qRqKqB-83" value="Search" style="rounded=1;whiteSpace=wrap;html=1;" parent="1" vertex="1">
          <mxGeometry x="540" y="685" width="80" height="40" as="geometry" />
        </mxCell>
        <mxCell id="ph1OJptVyuive3qRqKqB-91" style="edgeStyle=orthogonalEdgeStyle;rounded=0;orthogonalLoop=1;jettySize=auto;html=1;endArrow=none;endFill=0;startArrow=classic;startFill=1;" parent="1" source="ph1OJptVyuive3qRqKqB-84" edge="1">
          <mxGeometry relative="1" as="geometry">
            <mxPoint x="480" y="644.9999999999999" as="targetPoint" />
          </mxGeometry>
        </mxCell>
        <mxCell id="ph1OJptVyuive3qRqKqB-84" value="History" style="rounded=1;whiteSpace=wrap;html=1;" parent="1" vertex="1">
          <mxGeometry x="440" y="685" width="80" height="40" as="geometry" />
        </mxCell>
        <mxCell id="ph1OJptVyuive3qRqKqB-93" style="edgeStyle=orthogonalEdgeStyle;rounded=0;orthogonalLoop=1;jettySize=auto;html=1;endArrow=none;endFill=0;startArrow=classic;startFill=1;" parent="1" source="ph1OJptVyuive3qRqKqB-85" edge="1">
          <mxGeometry relative="1" as="geometry">
            <mxPoint x="680" y="644.9999999999999" as="targetPoint" />
          </mxGeometry>
        </mxCell>
        <mxCell id="ph1OJptVyuive3qRqKqB-104" style="edgeStyle=orthogonalEdgeStyle;rounded=0;orthogonalLoop=1;jettySize=auto;html=1;entryX=0.5;entryY=0;entryDx=0;entryDy=0;" parent="1" source="ph1OJptVyuive3qRqKqB-85" target="ph1OJptVyuive3qRqKqB-103" edge="1">
          <mxGeometry relative="1" as="geometry" />
        </mxCell>
        <mxCell id="ph1OJptVyuive3qRqKqB-85" value="View plot details" style="rounded=1;whiteSpace=wrap;html=1;" parent="1" vertex="1">
          <mxGeometry x="640" y="685" width="80" height="40" as="geometry" />
        </mxCell>
        <mxCell id="ph1OJptVyuive3qRqKqB-86" value="" style="endArrow=none;html=1;rounded=0;" parent="1" edge="1">
          <mxGeometry width="50" height="50" relative="1" as="geometry">
            <mxPoint x="479.39" y="645" as="sourcePoint" />
            <mxPoint x="679.39" y="645" as="targetPoint" />
          </mxGeometry>
        </mxCell>
        <mxCell id="ph1OJptVyuive3qRqKqB-101" style="edgeStyle=orthogonalEdgeStyle;rounded=0;orthogonalLoop=1;jettySize=auto;html=1;entryX=0.5;entryY=0;entryDx=0;entryDy=0;" parent="1" source="ph1OJptVyuive3qRqKqB-96" target="ph1OJptVyuive3qRqKqB-97" edge="1">
          <mxGeometry relative="1" as="geometry" />
        </mxCell>
        <mxCell id="ph1OJptVyuive3qRqKqB-112" style="edgeStyle=orthogonalEdgeStyle;rounded=0;orthogonalLoop=1;jettySize=auto;html=1;" parent="1" source="ph1OJptVyuive3qRqKqB-96" edge="1">
          <mxGeometry relative="1" as="geometry">
            <mxPoint x="800" y="905" as="targetPoint" />
          </mxGeometry>
        </mxCell>
        <mxCell id="ph1OJptVyuive3qRqKqB-116" value="Close" style="edgeLabel;html=1;align=center;verticalAlign=middle;resizable=0;points=[];" parent="ph1OJptVyuive3qRqKqB-112" vertex="1" connectable="0">
          <mxGeometry x="-0.2579" y="-1" relative="1" as="geometry">
            <mxPoint as="offset" />
          </mxGeometry>
        </mxCell>
        <mxCell id="ph1OJptVyuive3qRqKqB-96" value="Checkout" style="rounded=1;whiteSpace=wrap;html=1;" parent="1" vertex="1">
          <mxGeometry x="640" y="885" width="80" height="40" as="geometry" />
        </mxCell>
        <mxCell id="ph1OJptVyuive3qRqKqB-107" style="edgeStyle=orthogonalEdgeStyle;rounded=0;orthogonalLoop=1;jettySize=auto;html=1;entryX=0.5;entryY=1;entryDx=0;entryDy=0;" parent="1" source="ph1OJptVyuive3qRqKqB-97" target="ph1OJptVyuive3qRqKqB-84" edge="1">
          <mxGeometry relative="1" as="geometry" />
        </mxCell>
        <mxCell id="ph1OJptVyuive3qRqKqB-118" value="Payment completed" style="edgeLabel;html=1;align=center;verticalAlign=middle;resizable=0;points=[];" parent="ph1OJptVyuive3qRqKqB-107" vertex="1" connectable="0">
          <mxGeometry x="-0.0055" y="3" relative="1" as="geometry">
            <mxPoint x="3" y="-32" as="offset" />
          </mxGeometry>
        </mxCell>
        <mxCell id="ph1OJptVyuive3qRqKqB-109" style="edgeStyle=orthogonalEdgeStyle;rounded=0;orthogonalLoop=1;jettySize=auto;html=1;entryX=1;entryY=0.5;entryDx=0;entryDy=0;" parent="1" source="ph1OJptVyuive3qRqKqB-97" target="ph1OJptVyuive3qRqKqB-85" edge="1">
          <mxGeometry relative="1" as="geometry">
            <Array as="points">
              <mxPoint x="800" y="985" />
              <mxPoint x="800" y="705" />
            </Array>
          </mxGeometry>
        </mxCell>
        <mxCell id="ph1OJptVyuive3qRqKqB-113" value="Failed" style="edgeLabel;html=1;align=center;verticalAlign=middle;resizable=0;points=[];" parent="ph1OJptVyuive3qRqKqB-109" vertex="1" connectable="0">
          <mxGeometry x="-0.8518" y="-1" relative="1" as="geometry">
            <mxPoint as="offset" />
          </mxGeometry>
        </mxCell>
        <mxCell id="ph1OJptVyuive3qRqKqB-119" style="edgeStyle=orthogonalEdgeStyle;rounded=0;orthogonalLoop=1;jettySize=auto;html=1;" parent="1" source="ph1OJptVyuive3qRqKqB-97" target="ph1OJptVyuive3qRqKqB-66" edge="1">
          <mxGeometry relative="1" as="geometry">
            <Array as="points">
              <mxPoint x="20" y="985" />
            </Array>
          </mxGeometry>
        </mxCell>
        <mxCell id="ph1OJptVyuive3qRqKqB-120" value="Store transaction" style="edgeLabel;html=1;align=center;verticalAlign=middle;resizable=0;points=[];" parent="ph1OJptVyuive3qRqKqB-119" vertex="1" connectable="0">
          <mxGeometry x="0.0772" y="1" relative="1" as="geometry">
            <mxPoint as="offset" />
          </mxGeometry>
        </mxCell>
        <mxCell id="ph1OJptVyuive3qRqKqB-97" value="Razorpay" style="rounded=1;whiteSpace=wrap;html=1;" parent="1" vertex="1">
          <mxGeometry x="640" y="965" width="80" height="40" as="geometry" />
        </mxCell>
        <mxCell id="ph1OJptVyuive3qRqKqB-110" value="Yes" style="edgeStyle=orthogonalEdgeStyle;rounded=0;orthogonalLoop=1;jettySize=auto;html=1;entryX=0.5;entryY=0;entryDx=0;entryDy=0;" parent="1" source="ph1OJptVyuive3qRqKqB-103" target="ph1OJptVyuive3qRqKqB-96" edge="1">
          <mxGeometry relative="1" as="geometry" />
        </mxCell>
        <mxCell id="ph1OJptVyuive3qRqKqB-111" style="edgeStyle=orthogonalEdgeStyle;rounded=0;orthogonalLoop=1;jettySize=auto;html=1;entryX=0.5;entryY=1;entryDx=0;entryDy=0;" parent="1" source="ph1OJptVyuive3qRqKqB-103" target="ph1OJptVyuive3qRqKqB-83" edge="1">
          <mxGeometry relative="1" as="geometry" />
        </mxCell>
        <mxCell id="ph1OJptVyuive3qRqKqB-117" value="No" style="edgeLabel;html=1;align=center;verticalAlign=middle;resizable=0;points=[];" parent="ph1OJptVyuive3qRqKqB-111" vertex="1" connectable="0">
          <mxGeometry x="-0.0304" y="2" relative="1" as="geometry">
            <mxPoint y="1" as="offset" />
          </mxGeometry>
        </mxCell>
        <mxCell id="ph1OJptVyuive3qRqKqB-103" value="from search list?" style="rhombus;whiteSpace=wrap;html=1;" parent="1" vertex="1">
          <mxGeometry x="640" y="765" width="80" height="80" as="geometry" />
        </mxCell>
        <mxCell id="ph1OJptVyuive3qRqKqB-126" value="Firebase storage" style="rounded=1;whiteSpace=wrap;html=1;" parent="1" vertex="1">
          <mxGeometry x="-120" y="905" width="80" height="40" as="geometry" />
        </mxCell>
        <mxCell id="ph1OJptVyuive3qRqKqB-141" value="&lt;font color=&quot;#4b1087&quot;&gt;Landing page module&lt;/font&gt;" style="rounded=1;whiteSpace=wrap;html=1;fillColor=#e1d5e7;strokeColor=#9673a6;" parent="1" vertex="1">
          <mxGeometry x="200" y="40" width="120" height="30" as="geometry" />
        </mxCell>
        <mxCell id="ph1OJptVyuive3qRqKqB-142" value="&lt;font color=&quot;#b32704&quot;&gt;Authentication module&lt;/font&gt;" style="rounded=1;whiteSpace=wrap;html=1;fillColor=#f8cecc;strokeColor=#b85450;" parent="1" vertex="1">
          <mxGeometry x="40" y="450" width="130" height="30" as="geometry" />
        </mxCell>
        <mxCell id="ph1OJptVyuive3qRqKqB-144" value="&lt;font color=&quot;#1fa105&quot;&gt;PO module&lt;/font&gt;" style="rounded=1;whiteSpace=wrap;html=1;fillColor=#d5e8d4;strokeColor=#82b366;" parent="1" vertex="1">
          <mxGeometry x="40" y="500" width="130" height="30" as="geometry" />
        </mxCell>
        <mxCell id="ph1OJptVyuive3qRqKqB-145" value="&lt;font color=&quot;#0066cc&quot;&gt;CO module&lt;/font&gt;" style="rounded=1;whiteSpace=wrap;html=1;fillColor=#dae8fc;strokeColor=#6c8ebf;" parent="1" vertex="1">
          <mxGeometry x="560" y="500" width="130" height="30" as="geometry" />
        </mxCell>
        <mxCell id="ph1OJptVyuive3qRqKqB-149" value="" style="endArrow=none;html=1;rounded=0;" parent="1" edge="1">
          <mxGeometry width="50" height="50" relative="1" as="geometry">
            <mxPoint x="-140" y="540" as="sourcePoint" />
            <mxPoint x="340" y="540" as="targetPoint" />
          </mxGeometry>
        </mxCell>
        <mxCell id="ph1OJptVyuive3qRqKqB-152" value="" style="endArrow=classic;html=1;rounded=0;entryX=0.5;entryY=0;entryDx=0;entryDy=0;" parent="1" target="ph1OJptVyuive3qRqKqB-41" edge="1">
          <mxGeometry width="50" height="50" relative="1" as="geometry">
            <mxPoint x="-140" y="540" as="sourcePoint" />
            <mxPoint x="-160" y="510" as="targetPoint" />
          </mxGeometry>
        </mxCell>
        <mxCell id="ph1OJptVyuive3qRqKqB-154" value="" style="endArrow=classic;html=1;rounded=0;entryX=0.5;entryY=0;entryDx=0;entryDy=0;" parent="1" target="ph1OJptVyuive3qRqKqB-42" edge="1">
          <mxGeometry width="50" height="50" relative="1" as="geometry">
            <mxPoint x="20" y="540" as="sourcePoint" />
            <mxPoint x="20" y="560" as="targetPoint" />
          </mxGeometry>
        </mxCell>
        <mxCell id="ph1OJptVyuive3qRqKqB-155" value="" style="endArrow=classic;html=1;rounded=0;entryX=0.5;entryY=0;entryDx=0;entryDy=0;" parent="1" target="ph1OJptVyuive3qRqKqB-43" edge="1">
          <mxGeometry width="50" height="50" relative="1" as="geometry">
            <mxPoint x="180" y="540" as="sourcePoint" />
            <mxPoint x="180" y="550" as="targetPoint" />
          </mxGeometry>
        </mxCell>
        <mxCell id="ph1OJptVyuive3qRqKqB-156" value="" style="endArrow=classic;html=1;rounded=0;entryX=0.5;entryY=0;entryDx=0;entryDy=0;" parent="1" target="ph1OJptVyuive3qRqKqB-44" edge="1">
          <mxGeometry width="50" height="50" relative="1" as="geometry">
            <mxPoint x="340" y="540" as="sourcePoint" />
            <mxPoint x="340" y="560" as="targetPoint" />
          </mxGeometry>
        </mxCell>
        <mxCell id="ph1OJptVyuive3qRqKqB-158" value="Parknest flow diagram" style="text;html=1;strokeColor=none;fillColor=none;align=center;verticalAlign=middle;whiteSpace=wrap;rounded=0;fontStyle=1" parent="1" vertex="1">
          <mxGeometry x="195" y="-10" width="210" height="30" as="geometry" />
        </mxCell>
      </root>
    </mxGraphModel>
  </diagram>
</mxfile>
